<svg xmlns="http://www.w3.org/2000/svg" viewBox="0 0 1600 1000">
  <rect width="1600" height="1000" fill="#0f172a"/>
  <rect x="0" y="0" width="1600" height="1000" fill="url(#bg)"/>
  <g opacity="0.22">
    <rect x="120" y="240" width="260" height="520" rx="18" fill="#f59e0b"/>
    <rect x="430" y="120" width="260" height="640" rx="18" fill="#fbbf24"/>
    <rect x="740" y="320" width="260" height="440" rx="18" fill="#f59e0b"/>
    <rect x="1050" y="200" width="260" height="560" rx="18" fill="#fbbf24"/>
  </g>
  <g opacity="0.9">
    <path d="M190 720h180v120H190z" fill="#111827"/>
    <path d="M500 650h180v190H500z" fill="#111827"/>
    <path d="M810 760h180v80H810z" fill="#111827"/>
    <path d="M1120 700h180v140h-180z" fill="#111827"/>
  </g>
  <rect x="0" y="0" width="1600" height="1000" fill="url(#grid)" opacity="0.15"/>
  <defs>
    <linearGradient id="bg" x1="0" y1="0" x2="1" y2="1">
      <stop offset="0%" stop-color="#111827"/>
      <stop offset="60%" stop-color="#1f2937"/>
      <stop offset="100%" stop-color="#0f172a"/>
    </linearGradient>
    <pattern id="grid" width="80" height="80" patternUnits="userSpaceOnUse">
      <path d="M 80 0 L 0 0 0 80" fill="none" stroke="#f59e0b" stroke-width="1"/>
    </pattern>
  </defs>
</svg>
